<?xml version="1.0" encoding="UTF-8"?>
<svg id="Layer_1" xmlns="http://www.w3.org/2000/svg" version="1.1" viewBox="0 0 512 512">
  <!-- Generator: Adobe Illustrator 30.0.0, SVG Export Plug-In . SVG Version: 2.1.1 Build 123)  -->
  <defs>
    <style>
      .st0 {
        fill: #fff;
      }

      .st0, .st1 {
        stroke: #000;
        stroke-miterlimit: 10;
        stroke-width: .5px;
      }

      .st1 {
        fill: #11afe0;
      }
    </style>
  </defs>
  <path class="st0" d="M12.01,228.95h55.45c11.91-82.7,78.85-150.02,161.37-161.75V11.47h0C120.04,19.66,20.94,119.99,12.01,228.95h0Z"/>
  <path class="st0" d="M499.99,228.95h-55.45c-11.91-82.7-78.85-150.02-161.37-161.75V11.47h0c108.79,8.2,207.88,108.52,216.82,217.49h0Z"/>
  <path class="st0" d="M500.53,283.05h-55.45c-11.91,82.7-78.85,150.02-161.37,161.75v55.74h0c108.79-8.2,207.88-108.52,216.82-217.49h0Z"/>
  <rect class="st0" x="425.05" y="233.77" width="86.95" height="44.45"/>
  <rect class="st0" x="233.77" y="425.05" width="44.45" height="86.95"/>
  <rect class="st0" x="233.77" width="44.45" height="86.95"/>
  <rect class="st0" y="233.77" width="86.95" height="44.45"/>
  <path class="st0" d="M382.87,181.45v216.02l-86.8,21.48c-.05-42.51.05-104.69,0-146.93l86.8-90.57Z"/>
  <polygon class="st0" points="295.05 272.32 295.05 418.94 217.01 418.94 217.01 280.72 245.65 252.98 295.05 272.32"/>
  <polygon class="st0" points="140.01 355.49 216.01 281.69 216.01 418.94 140.01 406.65 140.01 355.49"/>
  <polygon class="st1" points="444.39 67.41 425.05 205.67 402.38 160.09 295.56 271.53 245.6 251.96 112.45 381.25 237.41 183.45 288.01 209.03 363.13 113.86 320.81 86.95 444.39 67.41"/>
  <path class="st0" d="M11.47,283.05h55.45c11.91,82.7,78.85,150.02,161.37,161.75v55.74h0c-108.79-8.2-207.88-108.52-216.82-217.49h0Z"/>
</svg>